<svg id="visual" viewBox="0 0 900 600" width="900" height="600" xmlns="http://www.w3.org/2000/svg" xmlns:xlink="http://www.w3.org/1999/xlink" version="1.1"><path d="M0 129L10.7 135.3C21.3 141.7 42.7 154.3 64.2 146.2C85.7 138 107.3 109 128.8 103.7C150.3 98.3 171.7 116.7 193 127.8C214.3 139 235.7 143 257 143.8C278.3 144.7 299.7 142.3 321.2 134C342.7 125.7 364.3 111.3 385.8 119.2C407.3 127 428.7 157 450 175.2C471.3 193.3 492.7 199.7 514.2 186C535.7 172.3 557.3 138.7 578.8 133.8C600.3 129 621.7 153 643 150.5C664.3 148 685.7 119 707 117.8C728.3 116.7 749.7 143.3 771.2 145.2C792.7 147 814.3 124 835.8 121.3C857.3 118.7 878.7 136.3 889.3 145.2L900 154L900 0L889.3 0C878.7 0 857.3 0 835.8 0C814.3 0 792.7 0 771.2 0C749.7 0 728.3 0 707 0C685.7 0 664.3 0 643 0C621.7 0 600.3 0 578.8 0C557.3 0 535.7 0 514.2 0C492.7 0 471.3 0 450 0C428.7 0 407.3 0 385.8 0C364.3 0 342.7 0 321.2 0C299.7 0 278.3 0 257 0C235.7 0 214.3 0 193 0C171.7 0 150.3 0 128.8 0C107.3 0 85.7 0 64.2 0C42.7 0 21.3 0 10.7 0L0 0Z" fill="#ee5057" stroke-linecap="round" stroke-linejoin="miter"></path></svg>